# xmcd CD database file
#
# Track frame offsets:
#	150
#	16007
#	30312
#	50445
#	68437
#	88250
#	106817
#	126527
#	145302
#	161665
#	183365
#	205740
#	246315
#	270677
#	286650
#	311210
#
# Disc length: 4400 seconds
#
# Revision: 0
# Processed by: cddbd v1.5.1PL0 Copyright (c) Steve Scherf et al.
# Submitted via: CDex 1.51
#
DISCID=de112e10
DTITLE=葛城ユキ - ボヘミアン
DYEAR=2002
DGENRE=Rock
TTITLE0=ボヘミアン
TTITLE1=哀しみのオーシャン
TTITLE2=ヒーロー
TTITLE3=哀愁夜
TTITLE4=夢に吹かれて
TTITLE5=Fighting In The Danger
TTITLE6=今、Heart Break
TTITLE7=輝くために
TTITLE8=暗くなるまで待てない
TTITLE9=PRIDE〜for You
TTITLE10=木曽は山の中(Remake - version)
TTITLE11=狼の挽歌
TTITLE12=RAIN RAIN
TTITLE13=Sunny Dream
TTITLE14=DOWN TOWN DREAM
TTITLE15=ブルースはもう聴こえない
EXTD=YEAR: 2002.09.04
EXTT0=
EXTT1=
EXTT2=
EXTT3=
EXTT4=
EXTT5=
EXTT6=
EXTT7=
EXTT8=
EXTT9=
EXTT10=
EXTT11=
EXTT12=
EXTT13=
EXTT14=
EXTT15=
PLAYORDER=
